<svg xmlns="http://www.w3.org/2000/svg" width="15" height="12.273" viewBox="0 0 15 12.273">
  <path id="barcode_scanner_24dp_FFFFFF_FILL0_wght400_GRAD0_opsz24" d="M43.409-828.409a.659.659,0,0,1-.2.486.659.659,0,0,1-.486.2H40.682a.659.659,0,0,1-.486-.2.659.659,0,0,1-.2-.486v-2.046a.66.66,0,0,1,.2-.486.66.66,0,0,1,.486-.2.66.66,0,0,1,.486.2.66.66,0,0,1,.2.486v1.364h1.364a.66.66,0,0,1,.486.2A.66.66,0,0,1,43.409-828.409Zm10.909-2.727a.66.66,0,0,1,.486.2.66.66,0,0,1,.2.486v2.046a.659.659,0,0,1-.2.486.659.659,0,0,1-.486.2H52.273a.659.659,0,0,1-.486-.2.659.659,0,0,1-.2-.486.66.66,0,0,1,.2-.486.66.66,0,0,1,.486-.2h1.364v-1.364a.66.66,0,0,1,.2-.486A.66.66,0,0,1,54.318-831.136Zm-11.932,1.364a.327.327,0,0,1-.239-.1.327.327,0,0,1-.1-.239v-7.5a.327.327,0,0,1,.1-.239.327.327,0,0,1,.239-.1h.682a.327.327,0,0,1,.239.1.327.327,0,0,1,.1.239v7.5a.327.327,0,0,1-.1.239.327.327,0,0,1-.239.1Zm2.045,0a.327.327,0,0,1-.239-.1.327.327,0,0,1-.1-.239v-7.5a.327.327,0,0,1,.1-.239.327.327,0,0,1,.239-.1.327.327,0,0,1,.239.1.327.327,0,0,1,.1.239v7.5a.327.327,0,0,1-.1.239A.327.327,0,0,1,44.432-829.773Zm2.045,0a.327.327,0,0,1-.239-.1.327.327,0,0,1-.1-.239v-7.5a.327.327,0,0,1,.1-.239.327.327,0,0,1,.239-.1h.682a.327.327,0,0,1,.239.1.327.327,0,0,1,.1.239v7.5a.327.327,0,0,1-.1.239.327.327,0,0,1-.239.1Zm2.045,0a.327.327,0,0,1-.239-.1.327.327,0,0,1-.1-.239v-7.5a.327.327,0,0,1,.1-.239.327.327,0,0,1,.239-.1h1.364a.327.327,0,0,1,.239.1.327.327,0,0,1,.1.239v7.5a.327.327,0,0,1-.1.239.327.327,0,0,1-.239.1Zm2.727,0a.327.327,0,0,1-.239-.1.327.327,0,0,1-.1-.239v-7.5a.327.327,0,0,1,.1-.239.327.327,0,0,1,.239-.1.327.327,0,0,1,.239.1.327.327,0,0,1,.1.239v7.5a.327.327,0,0,1-.1.239A.327.327,0,0,1,51.25-829.773Zm1.364,0a.327.327,0,0,1-.239-.1.327.327,0,0,1-.1-.239v-7.5a.327.327,0,0,1,.1-.239.327.327,0,0,1,.239-.1.327.327,0,0,1,.239.1.327.327,0,0,1,.1.239v7.5a.327.327,0,0,1-.1.239A.327.327,0,0,1,52.614-829.773Zm-9.2-9.546a.66.66,0,0,1-.2.486.66.66,0,0,1-.486.2H41.364v1.364a.66.66,0,0,1-.2.486.66.66,0,0,1-.486.2.66.66,0,0,1-.486-.2.66.66,0,0,1-.2-.486v-2.046a.66.66,0,0,1,.2-.486.66.66,0,0,1,.486-.2h2.045a.66.66,0,0,1,.486.2A.66.66,0,0,1,43.409-839.318Zm8.182,0a.66.66,0,0,1,.2-.486.66.66,0,0,1,.486-.2h2.045a.66.66,0,0,1,.486.2.66.66,0,0,1,.2.486v2.046a.66.66,0,0,1-.2.486.66.66,0,0,1-.486.2.66.66,0,0,1-.486-.2.66.66,0,0,1-.2-.486v-1.364H52.273a.66.66,0,0,1-.486-.2A.66.66,0,0,1,51.591-839.318Z" transform="translate(-40 840)" fill="#6f6f6f"/>
</svg>
