<svg xmlns="http://www.w3.org/2000/svg" width="34" height="34" viewBox="0 0 34 34">
  <g id="Rastrear_gui패a_00480569909___coordinadora-1" data-name="Rastrear gui패a 00480569909 _ coordinadora-1" transform="translate(-0.303 -0.438)">
    <g id="Grupo_181" data-name="Grupo 181" transform="translate(1.933 8.923)">
      <g id="Grupo_180" data-name="Grupo 180">
        <path id="Trazado_57" data-name="Trazado 57" d="M15.581,5.681c.5-2.059-.88-3.391-2.967-3.421a5.135,5.135,0,0,0-2.527.638c.071.1.156.171.227.269a2.569,2.569,0,0,1,.525,1.562V4.9a1.6,1.6,0,0,1,1.221-.553.951.951,0,0,1,.969,1.278,1.632,1.632,0,0,1-1.6,1.259.979.979,0,0,1-.909-.469A4.671,4.671,0,0,1,8.772,8.374,3.634,3.634,0,0,0,10.9,9a4.7,4.7,0,0,0,4.677-3.318Z" transform="translate(3.697 0.951)" fill="#fff"/>
        <path id="Trazado_58" data-name="Trazado 58" d="M12.3,5.655c.525-2.059-.852-3.391-2.967-3.421a6.3,6.3,0,0,0-.88,0,4.643,4.643,0,0,0-3.834,3.35c-.525,2.115.88,3.421,3,3.421a5.394,5.394,0,0,0,.823-.085A4.515,4.515,0,0,0,12.3,5.655Zm-2.527,0a1.661,1.661,0,0,1-1.3,1.235,1.163,1.163,0,0,1-.312,0A.951.951,0,0,1,7.178,5.6,1.7,1.7,0,0,1,8.473,4.392a1.321,1.321,0,0,1,.341,0A.969.969,0,0,1,9.75,5.652Z" transform="translate(1.91 0.934)" fill="#fff"/>
        <path id="Trazado_59" data-name="Trazado 59" d="M31.23,10.6h0a2.343,2.343,0,0,0-2.1-2.228L28.051,4.77h.156a.3.3,0,0,0,.3-.312,2.527,2.527,0,0,0-2.513-2.527H22.713v-.81A1.122,1.122,0,0,0,21.521,0H3.506A1.107,1.107,0,0,0,2.4,1.122v12.35H.3a.3.3,0,1,0,0,.6H2.4v.969a1.122,1.122,0,0,0,1.107,1.122H5.962v.213a2.953,2.953,0,1,0,5.891,0v-.213H23.111v.213a2.955,2.955,0,0,0,5.91,0v-.213h1.931a.312.312,0,0,0,.3-.312V10.6ZM28.49,8.362H22.713V4.77H27.5Zm-2.5-5.82A1.916,1.916,0,0,1,27.88,4.16H22.713V2.542ZM11.257,16.373a2.343,2.343,0,1,1-4.685,0V16.16a2.74,2.74,0,0,1,.142-.61,2.343,2.343,0,0,1,4.387,0,2.74,2.74,0,0,1,.142.61S11.257,16.3,11.257,16.373Zm.484-.753a2.953,2.953,0,0,0-5.678,0H3.506a.512.512,0,0,1-.512-.512V14.072H5.379a.3.3,0,0,0,0-.6H3V1.122A.512.512,0,0,1,3.506.611h18.02a.512.512,0,0,1,.512.512V2.244h0V8.66h0v6.956Zm16.652.753a2.343,2.343,0,0,1-4.685,0V16.16a2.74,2.74,0,0,1,.142-.61,2.343,2.343,0,0,1,4.387,0,2.131,2.131,0,0,1,.142.61s.011.138.011.213Zm.484-.823a2.953,2.953,0,0,0-5.678,0h-.484V8.972h6.261a1.732,1.732,0,0,1,1.675,1.32h-2.1a.312.312,0,0,0-.312.312v1.306a1.419,1.419,0,0,0,1.419,1.42h1.008v2.285Zm1.736-4.643v1.775H29.607a.766.766,0,0,1-.766-.766V10.908Z" transform="translate(0.018 0.002)" fill="#fff" stroke="#fff" stroke-linecap="round" stroke-width="0.5"/>
        <path id="Trazado_60" data-name="Trazado 60" d="M16.746,9.49H9.168a.3.3,0,1,0,0,.6h7.578a.3.3,0,0,0,0-.6Z" transform="translate(3.739 3.985)" fill="#fff" stroke="#fff" stroke-linecap="round" stroke-width="0.5"/>
        <path id="Trazado_61" data-name="Trazado 61" d="M6.666,10.61a1.306,1.306,0,1,0,1.306,1.306A1.32,1.32,0,0,0,6.666,10.61Zm0,2.016a.689.689,0,1,0,0-.043Z" transform="translate(2.266 4.454)" fill="#fff"/>
        <path id="Trazado_62" data-name="Trazado 62" d="M18.746,10.61a1.308,1.308,0,1,0,0,2.616l.98-.444.326-.862a1.32,1.32,0,0,0-1.306-1.306Zm0,2.016a.689.689,0,1,0,0-.043Z" transform="translate(7.335 4.454)" fill="#fff"/>
      </g>
    </g>
    <rect id="Rect치ngulo_38" data-name="Rect치ngulo 38" width="34" height="34" transform="translate(0.303 0.439)" fill="none"/>
  </g>
</svg>
